<svg xmlns="http://www.w3.org/2000/svg" xmlns:xlink="http://www.w3.org/1999/xlink" width="500" zoomAndPan="magnify" viewBox="0 0 375 374.999991" height="500" preserveAspectRatio="xMidYMid meet" version="1.0"><defs><clipPath id="ec8f0ebbbb"><path d="M 11 34 L 364 34 L 364 349.78125 L 11 349.78125 Z M 11 34 " clip-rule="nonzero"/></clipPath></defs><path fill="#fdba74" d="M 199.359375 275.660156 C 196.59375 275.660156 194.339844 277.914062 194.339844 280.6875 C 194.339844 283.445312 196.59375 285.699219 199.359375 285.699219 C 202.125 285.699219 204.378906 283.445312 204.378906 280.6875 C 204.378906 277.914062 202.125 275.660156 199.359375 275.660156 Z M 199.359375 275.660156 " fill-opacity="1" fill-rule="nonzero"/><path fill="#fdba74" d="M 199.84375 232.554688 C 197.070312 232.554688 194.816406 234.804688 194.816406 237.582031 C 194.816406 240.339844 197.070312 242.59375 199.84375 242.59375 C 202.601562 242.59375 204.855469 240.339844 204.855469 237.582031 C 204.855469 234.804688 202.601562 232.554688 199.84375 232.554688 Z M 199.84375 232.554688 " fill-opacity="1" fill-rule="nonzero"/><path fill="#fdba74" d="M 200.300781 195.375 C 197.542969 195.375 195.289062 197.628906 195.289062 200.402344 C 195.289062 203.179688 197.542969 205.414062 200.300781 205.414062 C 203.078125 205.414062 205.328125 203.171875 205.328125 200.402344 C 205.328125 197.636719 203.078125 195.375 200.300781 195.375 Z M 200.300781 195.375 " fill-opacity="1" fill-rule="nonzero"/><path fill="#fdba74" d="M 201.980469 152.269531 C 199.207031 152.269531 196.953125 154.523438 196.953125 157.296875 C 196.953125 160.0625 199.207031 162.308594 201.980469 162.308594 C 204.738281 162.308594 206.992188 160.0625 206.992188 157.296875 C 206.992188 154.53125 204.738281 152.269531 201.980469 152.269531 Z M 201.980469 152.269531 " fill-opacity="1" fill-rule="nonzero"/><path fill="#fdba74" d="M 204.355469 112.019531 C 201.582031 112.019531 199.328125 114.265625 199.328125 117.03125 C 199.328125 119.804688 201.582031 122.058594 204.355469 122.058594 C 207.117188 122.058594 209.367188 119.804688 209.367188 117.03125 C 209.375 114.273438 207.125 112.019531 204.355469 112.019531 Z M 204.355469 112.019531 " fill-opacity="1" fill-rule="nonzero"/><g clip-path="url(#ec8f0ebbbb)"><path fill="#fdba74" d="M 363.628906 313.664062 L 356.011719 289.316406 L 299.1875 84.773438 C 298.855469 83.59375 297.984375 82.636719 296.824219 82.207031 L 242.78125 62.113281 L 231.992188 44.066406 C 231.960938 44.019531 231.9375 43.980469 231.90625 43.9375 C 231.433594 43.191406 230.742188 42.671875 229.960938 42.394531 C 180.84375 24.738281 146.433594 41.859375 145 42.59375 C 144.933594 42.632812 144.910156 42.726562 144.839844 42.761719 C 144.648438 42.871094 144.441406 42.925781 144.273438 43.078125 C 143.8125 43.46875 143.507812 43.957031 143.277344 44.480469 C 143.261719 44.511719 143.222656 44.519531 143.207031 44.554688 L 136.210938 61.5625 C 136.011719 61.609375 135.820312 61.59375 135.621094 61.667969 C 135.007812 61.914062 134.535156 62.335938 134.140625 62.8125 L 78.6875 82.175781 C 77.507812 82.589844 76.597656 83.5625 76.265625 84.773438 L 19.441406 289.347656 C 19.027344 290.503906 15.035156 301.855469 12.085938 313.886719 C 11.832031 314.921875 12.023438 316.007812 12.605469 316.90625 C 13.1875 317.804688 14.113281 318.402344 15.164062 318.585938 L 53.484375 325.082031 C 53.699219 325.121094 53.910156 325.136719 54.125 325.136719 C 55.742188 325.136719 57.222656 324.101562 57.757812 322.523438 C 57.757812 322.523438 61.78125 310.546875 65.132812 300.175781 L 97.871094 198.648438 L 93.402344 321.160156 C 93.378906 321.757812 93.503906 322.355469 93.746094 322.90625 C 94.277344 324.046875 106.992188 349.890625 178.171875 349.890625 C 181.257812 349.890625 184.46875 349.84375 187.78125 349.738281 C 190.824219 349.691406 262.425781 348.425781 281.78125 323.65625 C 282.339844 322.945312 282.625 322.054688 282.59375 321.152344 L 277.699219 198.992188 L 310.328125 300.175781 C 310.519531 300.78125 310.886719 301.265625 311.308594 301.6875 C 314.726562 310.996094 318.726562 322.546875 318.726562 322.554688 C 319.265625 324.117188 320.742188 325.136719 322.351562 325.136719 C 322.566406 325.136719 322.789062 325.121094 323.003906 325.082031 L 360.625 318.585938 C 361.714844 318.394531 362.671875 317.75 363.246094 316.808594 C 363.820312 315.863281 363.960938 314.722656 363.628906 313.664062 Z M 236.039062 65.753906 L 224.902344 103.238281 L 210.410156 73.664062 L 228.160156 52.589844 Z M 222.144531 47.851562 L 203.191406 70.335938 L 196.871094 75.320312 C 195.84375 76.125 195.304688 77.394531 195.429688 78.691406 L 196.386719 88.683594 L 189.230469 107.542969 L 179.972656 88.355469 L 180.054688 78.359375 C 180.0625 77.179688 179.527344 76.054688 178.597656 75.324219 L 172.277344 70.34375 L 153.078125 47.574219 C 163.101562 43.988281 188.769531 37.398438 222.144531 47.851562 Z M 147.890625 53.316406 L 165.210938 73.855469 L 155.226562 100.292969 L 141.996094 67.265625 C 142.128906 67.074219 142.304688 66.910156 142.394531 66.6875 Z M 51.527344 316.976562 L 20.550781 311.71875 C 22.375 304.867188 24.40625 298.574219 25.625 294.949219 L 56.539062 301.824219 C 54.617188 307.695312 52.679688 313.535156 51.527344 316.976562 Z M 101.097656 320.316406 L 106.523438 171.296875 C 106.59375 169.382812 105.242188 167.71875 103.359375 167.382812 C 101.511719 167.066406 99.632812 168.164062 99.042969 169.980469 L 58.902344 294.496094 L 27.878906 287.601562 L 83.109375 88.753906 L 135.078125 70.605469 L 151.769531 112.28125 C 152.351562 113.734375 153.761719 114.6875 155.324219 114.6875 C 155.332031 114.6875 155.347656 114.6875 155.363281 114.6875 C 156.941406 114.671875 158.351562 113.691406 158.910156 112.210938 L 171.328125 79.347656 L 172.375 80.175781 L 172.300781 89.183594 C 172.300781 89.21875 172.324219 89.25 172.324219 89.289062 C 172.324219 89.535156 172.40625 89.773438 172.46875 90.023438 C 172.523438 90.277344 172.550781 90.539062 172.660156 90.777344 C 172.675781 90.804688 172.667969 90.84375 172.683594 90.882812 L 185.949219 118.363281 C 185.949219 118.363281 185.949219 118.363281 185.949219 118.371094 C 185.082031 138.296875 178.214844 301.800781 185.128906 340.878906 C 185.207031 341.332031 185.367188 341.738281 185.582031 342.113281 C 120.386719 343.78125 103.671875 324.101562 101.097656 320.316406 Z M 276.394531 169.988281 C 275.8125 168.171875 274.074219 167.042969 272.078125 167.390625 C 270.195312 167.71875 268.847656 169.398438 268.921875 171.3125 L 274.878906 319.980469 C 259.167969 337.726562 207.84375 341.246094 192.253906 341.914062 C 192.625 341.191406 192.824219 340.386719 192.667969 339.527344 C 185.816406 300.773438 193.152344 129.15625 193.660156 117.460938 L 203.875 90.554688 C 203.890625 90.523438 203.882812 90.484375 203.890625 90.445312 C 203.980469 90.199219 203.988281 89.941406 204.019531 89.671875 C 204.050781 89.425781 204.117188 89.183594 204.097656 88.9375 C 204.097656 88.898438 204.113281 88.867188 204.113281 88.820312 L 203.261719 80.023438 L 204.523438 79.027344 L 222.34375 115.398438 C 222.996094 116.71875 224.335938 117.542969 225.785156 117.542969 C 225.890625 117.542969 225.992188 117.542969 226.105469 117.53125 C 227.675781 117.398438 229.011719 116.320312 229.460938 114.808594 L 242.714844 70.238281 L 292.351562 88.699219 L 347.589844 287.59375 L 316.558594 294.492188 Z M 324.898438 316.976562 C 323.664062 313.433594 321.542969 307.410156 319.472656 301.703125 L 349.742188 294.972656 L 355.007812 311.773438 Z M 324.898438 316.976562 " fill-opacity="1" fill-rule="nonzero"/></g></svg>