<svg xmlns="http://www.w3.org/2000/svg" xmlns:xlink="http://www.w3.org/1999/xlink" width="500" zoomAndPan="magnify" viewBox="0 0 375 374.999991" height="500" preserveAspectRatio="xMidYMid meet" version="1.0"><defs><clipPath id="b46b606753"><path d="M 17 17 L 359 17 L 359 367.738281 L 17 367.738281 Z M 17 17 " clip-rule="nonzero"/></clipPath></defs><g clip-path="url(#b46b606753)"><path fill="#fdba74" d="M 357.898438 180.636719 L 310.042969 73.449219 C 309.566406 72.398438 308.703125 71.585938 307.636719 71.1875 L 247.449219 48.792969 L 235.425781 28.683594 C 235.410156 28.65625 235.390625 28.625 235.375 28.597656 C 234.894531 27.839844 234.222656 27.285156 233.453125 26.949219 C 189.011719 6.988281 140.910156 26.089844 138.890625 26.910156 C 138.675781 26.992188 138.523438 27.164062 138.335938 27.273438 C 138.144531 27.386719 137.925781 27.445312 137.746094 27.601562 C 137.703125 27.640625 137.675781 27.703125 137.632812 27.746094 C 137.429688 27.933594 137.285156 28.164062 137.121094 28.394531 C 136.941406 28.632812 136.765625 28.847656 136.644531 29.109375 C 136.628906 29.160156 136.574219 29.195312 136.550781 29.246094 L 128.757812 48.183594 C 128.535156 48.238281 128.324219 48.21875 128.101562 48.304688 C 127.417969 48.578125 126.890625 49.046875 126.453125 49.578125 L 64.695312 71.160156 C 63.550781 71.5625 62.621094 72.433594 62.160156 73.558594 L 17.917969 180.578125 C 17.480469 181.625 17.480469 182.8125 17.925781 183.863281 C 18.371094 184.910156 19.214844 185.75 20.273438 186.167969 L 74.324219 207.851562 C 76.414062 208.699219 78.828125 207.742188 79.785156 205.6875 L 85.8125 192.636719 L 77.34375 333.175781 C 77.300781 333.878906 77.429688 334.578125 77.730469 335.21875 C 78.367188 336.609375 93.980469 368.375 179.515625 368.375 C 182.261719 368.375 185.078125 368.339844 187.972656 368.273438 C 190.804688 368.023438 257.871094 368.015625 293.519531 336.632812 C 294.511719 335.761719 295.050781 334.492188 294.964844 333.175781 L 286.113281 187.046875 L 297.730469 205.976562 C 298.820312 207.769531 301.058594 208.492188 302.96875 207.699219 L 355.613281 186.328125 C 356.679688 185.894531 357.53125 185.039062 357.957031 183.964844 C 358.394531 182.898438 358.367188 181.6875 357.898438 180.636719 Z M 239.933594 52.84375 L 227.53125 94.605469 L 211.382812 61.660156 L 231.15625 38.191406 Z M 224.722656 32.585938 L 203.34375 57.949219 L 196.300781 63.496094 C 195.167969 64.394531 194.5625 65.808594 194.699219 67.253906 L 195.765625 78.398438 L 187.792969 99.402344 L 177.472656 78.015625 L 177.566406 66.867188 C 177.585938 65.554688 176.980469 64.300781 175.945312 63.488281 L 168.90625 57.941406 L 147.773438 32.867188 C 160.667969 28.871094 193.570312 20.976562 224.722656 32.585938 Z M 141.765625 38.992188 L 161.046875 61.875 L 149.925781 91.320312 L 135.191406 54.527344 C 135.339844 54.3125 135.535156 54.132812 135.636719 53.886719 Z M 85.9375 332.390625 L 95.6875 170.515625 C 95.8125 168.464844 94.457031 166.613281 92.46875 166.117188 C 90.4375 165.597656 88.414062 166.613281 87.550781 168.464844 L 73.734375 198.421875 L 27.449219 179.851562 L 69.320312 78.585938 L 127.496094 58.257812 L 146.082031 104.675781 C 146.730469 106.296875 148.300781 107.355469 150.042969 107.355469 C 150.050781 107.355469 150.070312 107.355469 150.085938 107.355469 C 151.84375 107.339844 153.414062 106.246094 154.039062 104.601562 L 167.855469 67.996094 L 169.015625 68.90625 L 168.941406 78.953125 C 168.941406 78.996094 168.957031 79.03125 168.957031 79.074219 C 168.964844 79.347656 169.058594 79.609375 169.117188 79.882812 C 169.179688 80.171875 169.210938 80.464844 169.332031 80.726562 C 169.347656 80.761719 169.339844 80.804688 169.359375 80.839844 L 184.121094 111.445312 C 184.121094 111.453125 184.132812 111.453125 184.140625 111.460938 C 183.175781 133.703125 175.527344 315.714844 183.226562 359.234375 C 183.261719 359.414062 183.363281 359.566406 183.414062 359.746094 C 108.746094 360.558594 88.976562 336.957031 85.9375 332.390625 Z M 303.097656 198.429688 L 284.441406 168.023438 C 283.425781 166.359375 281.402344 165.597656 279.523438 166.179688 C 277.65625 166.765625 276.433594 168.550781 276.546875 170.503906 L 286.308594 331.554688 C 257.1875 355.683594 205.484375 359.140625 191.503906 359.636719 C 191.675781 359.039062 191.746094 358.398438 191.632812 357.75 C 184.003906 314.582031 192.171875 123.453125 192.734375 110.453125 L 204.101562 80.488281 C 204.121094 80.445312 204.113281 80.414062 204.121094 80.371094 C 204.222656 80.105469 204.222656 79.816406 204.265625 79.523438 C 204.300781 79.242188 204.375 78.96875 204.351562 78.695312 C 204.351562 78.65625 204.367188 78.613281 204.367188 78.570312 L 203.421875 68.753906 L 204.828125 67.644531 L 224.679688 108.167969 C 225.40625 109.636719 226.898438 110.558594 228.511719 110.558594 C 228.632812 110.558594 228.742188 110.558594 228.871094 110.539062 C 230.621094 110.394531 232.105469 109.191406 232.609375 107.511719 L 247.367188 57.863281 L 302.996094 78.5625 L 348.324219 180.082031 Z M 303.097656 198.429688 " fill-opacity="1" fill-rule="nonzero"/></g><path fill="#fdba74" d="M 199.074219 286.636719 C 196.003906 286.636719 193.496094 289.148438 193.496094 292.21875 C 193.496094 295.308594 195.996094 297.816406 199.074219 297.816406 C 202.164062 297.816406 204.675781 295.308594 204.675781 292.21875 C 204.675781 289.148438 202.164062 286.636719 199.074219 286.636719 Z M 199.074219 286.636719 " fill-opacity="1" fill-rule="nonzero"/><path fill="#fdba74" d="M 199.605469 238.628906 C 196.523438 238.628906 194.015625 241.140625 194.015625 244.210938 C 194.015625 247.300781 196.515625 249.808594 199.605469 249.808594 C 202.695312 249.808594 205.195312 247.300781 205.195312 244.210938 C 205.195312 241.140625 202.6875 238.628906 199.605469 238.628906 Z M 199.605469 238.628906 " fill-opacity="1" fill-rule="nonzero"/><path fill="#fdba74" d="M 200.132812 197.226562 C 197.054688 197.226562 194.542969 199.726562 194.542969 202.808594 C 194.542969 205.898438 197.054688 208.40625 200.132812 208.40625 C 203.214844 208.40625 205.722656 205.898438 205.722656 202.808594 C 205.722656 199.726562 203.214844 197.226562 200.132812 197.226562 Z M 200.132812 197.226562 " fill-opacity="1" fill-rule="nonzero"/><path fill="#fdba74" d="M 201.984375 149.21875 C 198.90625 149.21875 196.394531 151.71875 196.394531 154.800781 C 196.394531 157.890625 198.90625 160.398438 201.984375 160.398438 C 205.066406 160.398438 207.578125 157.890625 207.578125 154.800781 C 207.585938 151.71875 205.074219 149.21875 201.984375 149.21875 Z M 201.984375 149.21875 " fill-opacity="1" fill-rule="nonzero"/><path fill="#fdba74" d="M 204.640625 104.378906 C 201.558594 104.378906 199.050781 106.886719 199.050781 109.976562 C 199.050781 113.058594 201.558594 115.558594 204.640625 115.558594 C 207.722656 115.558594 210.230469 113.058594 210.230469 109.976562 C 210.230469 106.886719 207.722656 104.378906 204.640625 104.378906 Z M 204.640625 104.378906 " fill-opacity="1" fill-rule="nonzero"/></svg>