<svg xmlns="http://www.w3.org/2000/svg" xmlns:xlink="http://www.w3.org/1999/xlink" width="500" zoomAndPan="magnify" viewBox="0 0 375 374.999991" height="500" preserveAspectRatio="xMidYMid meet" version="1.0"><defs><clipPath id="87d0a6419c"><path d="M 23 17.027344 L 352 17.027344 L 352 358 L 23 358 Z M 23 17.027344 " clip-rule="nonzero"/></clipPath></defs><g clip-path="url(#87d0a6419c)"><path fill="#fdba74" d="M 351.648438 165.328125 C 345.363281 142.113281 337.210938 119.222656 327.414062 97.289062 C 322.101562 85.390625 316.203125 73.5625 309.886719 62.125 C 309.886719 62.125 309.886719 62.125 309.882812 62.125 C 309.472656 61.378906 309.0625 60.636719 308.652344 59.902344 C 308.621094 59.847656 308.578125 59.800781 308.542969 59.746094 C 308.484375 59.65625 308.429688 59.570312 308.359375 59.488281 C 308.304688 59.417969 308.242188 59.363281 308.179688 59.300781 C 308.113281 59.234375 308.050781 59.164062 307.976562 59.105469 C 307.902344 59.046875 307.824219 58.996094 307.746094 58.945312 C 307.671875 58.894531 307.601562 58.84375 307.523438 58.804688 C 307.429688 58.753906 307.335938 58.71875 307.238281 58.679688 C 307.175781 58.65625 307.121094 58.621094 307.058594 58.601562 L 246.300781 39.222656 L 238.003906 23.65625 C 237.640625 22.976562 237.011719 22.472656 236.269531 22.269531 C 223.988281 18.914062 207.113281 17.140625 187.472656 17.140625 C 167.828125 17.140625 150.953125 18.914062 138.675781 22.269531 C 138.035156 22.445312 137.480469 22.839844 137.105469 23.382812 C 135.589844 25.585938 134.125 28.644531 132.707031 31.601562 C 131.382812 34.367188 130.015625 37.222656 128.746094 39.066406 C 128.714844 39.113281 128.695312 39.167969 128.664062 39.214844 L 67.882812 58.601562 C 67.824219 58.621094 67.769531 58.652344 67.710938 58.675781 C 67.613281 58.714844 67.511719 58.753906 67.421875 58.804688 C 67.34375 58.84375 67.273438 58.894531 67.199219 58.941406 C 67.121094 58.996094 67.042969 59.042969 66.96875 59.105469 C 66.894531 59.164062 66.832031 59.230469 66.765625 59.296875 C 66.703125 59.359375 66.640625 59.417969 66.582031 59.488281 C 66.515625 59.570312 66.457031 59.660156 66.402344 59.746094 C 66.367188 59.800781 66.324219 59.847656 66.292969 59.902344 C 65.882812 60.636719 65.46875 61.378906 65.058594 62.121094 C 65.058594 62.121094 65.058594 62.125 65.058594 62.125 C 58.738281 73.558594 52.84375 85.390625 47.527344 97.289062 C 37.734375 119.21875 29.582031 142.109375 23.296875 165.328125 C 22.890625 166.816406 23.769531 168.351562 25.257812 168.761719 L 82.695312 184.507812 C 82.941406 184.578125 83.191406 184.609375 83.4375 184.609375 C 84.667969 184.609375 85.796875 183.792969 86.136719 182.546875 C 86.546875 181.054688 85.667969 179.515625 84.175781 179.105469 L 29.441406 164.097656 C 35.546875 142.082031 43.347656 120.390625 52.640625 99.574219 C 57.1875 89.402344 62.164062 79.277344 67.46875 69.414062 C 74.523438 83.160156 80.234375 97.519531 84.449219 112.175781 C 92.351562 139.648438 94.265625 166.074219 91.753906 213.15625 C 90.472656 237.222656 88.285156 261.769531 85.257812 286.113281 C 82.957031 304.589844 80.117188 323.371094 76.820312 341.9375 C 76.550781 343.445312 77.550781 344.886719 79.050781 345.171875 C 79.089844 345.1875 79.125 345.207031 79.164062 345.21875 C 107.589844 353.355469 145.871094 357.835938 186.953125 357.835938 C 187.140625 357.835938 187.320312 357.8125 187.496094 357.777344 C 187.675781 357.8125 187.855469 357.835938 188.042969 357.835938 C 229.097656 357.835938 267.355469 353.359375 295.777344 345.234375 C 295.863281 345.210938 295.941406 345.167969 296.019531 345.136719 C 297.449219 344.789062 298.382812 343.402344 298.121094 341.9375 C 294.824219 323.367188 291.984375 304.582031 289.6875 286.113281 C 286.65625 261.777344 284.472656 237.230469 283.1875 213.15625 C 280.675781 166.070312 282.589844 139.648438 290.492188 112.175781 C 294.710938 97.519531 300.417969 83.160156 307.476562 69.414062 C 312.777344 79.277344 317.757812 89.402344 322.300781 99.574219 C 331.597656 120.394531 339.398438 142.085938 345.503906 164.097656 L 290.765625 179.105469 C 289.273438 179.515625 288.398438 181.054688 288.804688 182.546875 C 289.148438 183.792969 290.273438 184.609375 291.507812 184.609375 C 291.75 184.609375 292 184.578125 292.246094 184.507812 L 349.683594 168.761719 C 351.171875 168.351562 352.050781 166.816406 351.648438 165.328125 Z M 137.757812 34.023438 C 138.894531 31.652344 140.0625 29.210938 141.175781 27.402344 C 152.894531 24.351562 168.867188 22.742188 187.472656 22.742188 C 206.003906 22.742188 221.925781 24.339844 233.632812 27.367188 L 239.917969 39.160156 L 205.050781 72.546875 L 192.140625 62.878906 C 196.613281 59.464844 201.128906 55.726562 205.503906 52.105469 C 210.800781 47.71875 216.273438 43.179688 221.621094 39.273438 C 222.871094 38.359375 223.144531 36.609375 222.230469 35.359375 C 221.320312 34.109375 219.566406 33.839844 218.320312 34.75 C 212.832031 38.757812 207.289062 43.351562 201.929688 47.792969 C 197.46875 51.488281 192.851562 55.3125 188.335938 58.738281 C 188.050781 58.960938 187.761719 59.175781 187.472656 59.394531 C 187.183594 59.175781 186.894531 58.960938 186.605469 58.738281 C 186.605469 58.738281 186.605469 58.738281 186.601562 58.738281 C 182.089844 55.3125 177.476562 51.488281 173.011719 47.792969 C 167.652344 43.351562 162.109375 38.757812 156.625 34.75 C 155.375 33.839844 153.625 34.113281 152.710938 35.359375 C 151.796875 36.609375 152.070312 38.359375 153.320312 39.273438 C 158.667969 43.179688 164.144531 47.71875 169.4375 52.105469 C 173.8125 55.726562 178.328125 59.464844 182.804688 62.878906 L 169.890625 72.546875 L 135.140625 39.273438 C 136.03125 37.625 136.902344 35.808594 137.757812 34.023438 Z M 285.109375 110.628906 C 277.011719 138.765625 275.046875 165.675781 277.59375 213.453125 C 278.886719 237.660156 281.082031 262.335938 284.128906 286.804688 C 286.335938 304.546875 289.042969 322.570312 292.171875 340.425781 C 264.457031 348.042969 227.601562 352.234375 188.042969 352.234375 C 187.855469 352.234375 187.675781 352.253906 187.496094 352.289062 C 187.320312 352.253906 187.140625 352.234375 186.953125 352.234375 C 147.367188 352.234375 110.492188 348.039062 82.773438 340.410156 C 85.898438 322.566406 88.605469 304.546875 90.816406 286.804688 C 93.859375 262.332031 96.058594 237.652344 97.347656 213.453125 C 99.894531 165.675781 97.929688 138.769531 89.832031 110.628906 C 85.179688 94.453125 78.753906 78.632812 70.734375 63.574219 L 132.007812 44.027344 L 167.730469 78.234375 C 167.761719 78.265625 167.796875 78.285156 167.824219 78.308594 C 167.882812 78.363281 167.945312 78.40625 168.007812 78.453125 C 168.113281 78.53125 168.21875 78.601562 168.332031 78.660156 C 168.394531 78.695312 168.457031 78.730469 168.523438 78.761719 C 168.652344 78.816406 168.78125 78.859375 168.914062 78.898438 C 168.972656 78.914062 169.027344 78.933594 169.085938 78.945312 C 169.277344 78.988281 169.472656 79.015625 169.667969 79.015625 C 169.667969 79.015625 169.667969 79.011719 169.667969 79.011719 C 169.667969 79.011719 169.671875 79.015625 169.671875 79.015625 C 169.839844 79.015625 170.003906 78.996094 170.171875 78.964844 C 170.222656 78.953125 170.269531 78.941406 170.320312 78.929688 C 170.433594 78.902344 170.550781 78.867188 170.664062 78.824219 C 170.71875 78.800781 170.773438 78.777344 170.832031 78.753906 C 170.933594 78.707031 171.035156 78.648438 171.136719 78.585938 C 171.1875 78.554688 171.238281 78.527344 171.289062 78.492188 C 171.308594 78.476562 171.328125 78.46875 171.347656 78.453125 L 187.472656 66.382812 L 192.46875 70.121094 L 192.46875 147.972656 L 181.421875 147.972656 L 181.421875 84.824219 C 181.421875 83.277344 180.167969 82.023438 178.621094 82.023438 C 177.074219 82.023438 175.820312 83.277344 175.820312 84.824219 L 175.820312 150.773438 C 175.820312 152.320312 177.074219 153.574219 178.621094 153.574219 L 195.269531 153.574219 C 196.816406 153.574219 198.070312 152.320312 198.070312 150.773438 L 198.070312 74.316406 L 203.59375 78.453125 C 203.613281 78.46875 203.632812 78.476562 203.652344 78.492188 C 203.703125 78.527344 203.757812 78.554688 203.808594 78.589844 C 203.90625 78.648438 204.007812 78.707031 204.109375 78.753906 C 204.167969 78.777344 204.222656 78.800781 204.28125 78.824219 C 204.394531 78.867188 204.507812 78.902344 204.621094 78.929688 C 204.671875 78.941406 204.71875 78.953125 204.769531 78.964844 C 204.9375 78.996094 205.105469 79.015625 205.273438 79.015625 C 205.273438 79.015625 205.273438 79.011719 205.273438 79.011719 C 205.273438 79.011719 205.273438 79.015625 205.273438 79.015625 C 205.46875 79.015625 205.664062 78.988281 205.859375 78.945312 C 205.914062 78.933594 205.96875 78.914062 206.027344 78.898438 C 206.160156 78.859375 206.289062 78.816406 206.417969 78.761719 C 206.484375 78.730469 206.546875 78.695312 206.609375 78.660156 C 206.722656 78.601562 206.832031 78.53125 206.933594 78.453125 C 206.996094 78.40625 207.058594 78.363281 207.117188 78.308594 C 207.148438 78.28125 207.183594 78.265625 207.210938 78.234375 L 242.933594 44.027344 L 304.207031 63.574219 C 296.191406 78.632812 289.765625 94.453125 285.109375 110.628906 Z M 285.109375 110.628906 " fill-opacity="1" fill-rule="nonzero"/><path fill="#fdba74" d="M 351.648438 165.328125 C 345.363281 142.113281 337.210938 119.222656 327.414062 97.289062 C 322.101562 85.390625 316.203125 73.5625 309.886719 62.125 C 309.886719 62.125 309.886719 62.125 309.882812 62.125 C 309.472656 61.378906 309.0625 60.636719 308.652344 59.902344 C 308.621094 59.847656 308.578125 59.800781 308.542969 59.746094 C 308.484375 59.65625 308.429688 59.570312 308.359375 59.488281 C 308.304688 59.417969 308.242188 59.363281 308.179688 59.300781 C 308.113281 59.234375 308.050781 59.164062 307.976562 59.105469 C 307.902344 59.046875 307.824219 58.996094 307.746094 58.945312 C 307.671875 58.894531 307.601562 58.84375 307.523438 58.804688 C 307.429688 58.753906 307.335938 58.71875 307.238281 58.679688 C 307.175781 58.65625 307.121094 58.621094 307.058594 58.601562 L 246.300781 39.222656 L 238.003906 23.65625 C 237.640625 22.976562 237.011719 22.472656 236.269531 22.269531 C 223.988281 18.914062 207.113281 17.140625 187.472656 17.140625 C 167.828125 17.140625 150.953125 18.914062 138.675781 22.269531 C 138.035156 22.445312 137.480469 22.839844 137.105469 23.382812 C 135.589844 25.585938 134.125 28.644531 132.707031 31.601562 C 131.382812 34.367188 130.015625 37.222656 128.746094 39.066406 C 128.714844 39.113281 128.695312 39.167969 128.664062 39.214844 L 67.882812 58.601562 C 67.824219 58.621094 67.769531 58.652344 67.710938 58.675781 C 67.613281 58.714844 67.511719 58.753906 67.421875 58.804688 C 67.34375 58.84375 67.273438 58.894531 67.199219 58.941406 C 67.121094 58.996094 67.042969 59.042969 66.96875 59.105469 C 66.894531 59.164062 66.832031 59.230469 66.765625 59.296875 C 66.703125 59.359375 66.640625 59.417969 66.582031 59.488281 C 66.515625 59.570312 66.457031 59.660156 66.402344 59.746094 C 66.367188 59.800781 66.324219 59.847656 66.292969 59.902344 C 65.882812 60.636719 65.46875 61.378906 65.058594 62.121094 C 65.058594 62.121094 65.058594 62.125 65.058594 62.125 C 58.738281 73.558594 52.84375 85.390625 47.527344 97.289062 C 37.734375 119.21875 29.582031 142.109375 23.296875 165.328125 C 22.890625 166.816406 23.769531 168.351562 25.257812 168.761719 L 82.695312 184.507812 C 82.941406 184.578125 83.191406 184.609375 83.4375 184.609375 C 84.667969 184.609375 85.796875 183.792969 86.136719 182.546875 C 86.546875 181.054688 85.667969 179.515625 84.175781 179.105469 L 29.441406 164.097656 C 35.546875 142.082031 43.347656 120.390625 52.640625 99.574219 C 57.1875 89.402344 62.164062 79.277344 67.46875 69.414062 C 74.523438 83.160156 80.234375 97.519531 84.449219 112.175781 C 92.351562 139.648438 94.265625 166.074219 91.753906 213.15625 C 90.472656 237.222656 88.285156 261.769531 85.257812 286.113281 C 82.957031 304.589844 80.117188 323.371094 76.820312 341.9375 C 76.550781 343.445312 77.550781 344.886719 79.050781 345.171875 C 79.089844 345.1875 79.125 345.207031 79.164062 345.21875 C 107.589844 353.355469 145.871094 357.835938 186.953125 357.835938 C 187.140625 357.835938 187.320312 357.8125 187.496094 357.777344 C 187.675781 357.8125 187.855469 357.835938 188.042969 357.835938 C 229.097656 357.835938 267.355469 353.359375 295.777344 345.234375 C 295.863281 345.210938 295.941406 345.167969 296.019531 345.136719 C 297.449219 344.789062 298.382812 343.402344 298.121094 341.9375 C 294.824219 323.367188 291.984375 304.582031 289.6875 286.113281 C 286.65625 261.777344 284.472656 237.230469 283.1875 213.15625 C 280.675781 166.070312 282.589844 139.648438 290.492188 112.175781 C 294.710938 97.519531 300.417969 83.160156 307.476562 69.414062 C 312.777344 79.277344 317.757812 89.402344 322.300781 99.574219 C 331.597656 120.394531 339.398438 142.085938 345.503906 164.097656 L 290.765625 179.105469 C 289.273438 179.515625 288.398438 181.054688 288.804688 182.546875 C 289.148438 183.792969 290.273438 184.609375 291.507812 184.609375 C 291.75 184.609375 292 184.578125 292.246094 184.507812 L 349.683594 168.761719 C 351.171875 168.351562 352.050781 166.816406 351.648438 165.328125 Z M 137.757812 34.023438 C 138.894531 31.652344 140.0625 29.210938 141.175781 27.402344 C 152.894531 24.351562 168.867188 22.742188 187.472656 22.742188 C 206.003906 22.742188 221.925781 24.339844 233.632812 27.367188 L 239.917969 39.160156 L 205.050781 72.546875 L 192.140625 62.878906 C 196.613281 59.464844 201.128906 55.726562 205.503906 52.105469 C 210.800781 47.71875 216.273438 43.179688 221.621094 39.273438 C 222.871094 38.359375 223.144531 36.609375 222.230469 35.359375 C 221.320312 34.109375 219.566406 33.839844 218.320312 34.75 C 212.832031 38.757812 207.289062 43.351562 201.929688 47.792969 C 197.46875 51.488281 192.851562 55.3125 188.335938 58.738281 C 188.050781 58.960938 187.761719 59.175781 187.472656 59.394531 C 187.183594 59.175781 186.894531 58.960938 186.605469 58.738281 C 186.605469 58.738281 186.605469 58.738281 186.601562 58.738281 C 182.089844 55.3125 177.476562 51.488281 173.011719 47.792969 C 167.652344 43.351562 162.109375 38.757812 156.625 34.75 C 155.375 33.839844 153.625 34.113281 152.710938 35.359375 C 151.796875 36.609375 152.070312 38.359375 153.320312 39.273438 C 158.667969 43.179688 164.144531 47.71875 169.4375 52.105469 C 173.8125 55.726562 178.328125 59.464844 182.804688 62.878906 L 169.890625 72.546875 L 135.140625 39.273438 C 136.03125 37.625 136.902344 35.808594 137.757812 34.023438 Z M 285.109375 110.628906 C 277.011719 138.765625 275.046875 165.675781 277.59375 213.453125 C 278.886719 237.660156 281.082031 262.335938 284.128906 286.804688 C 286.335938 304.546875 289.042969 322.570312 292.171875 340.425781 C 264.457031 348.042969 227.601562 352.234375 188.042969 352.234375 C 187.855469 352.234375 187.675781 352.253906 187.496094 352.289062 C 187.320312 352.253906 187.140625 352.234375 186.953125 352.234375 C 147.367188 352.234375 110.492188 348.039062 82.773438 340.410156 C 85.898438 322.566406 88.605469 304.546875 90.816406 286.804688 C 93.859375 262.332031 96.058594 237.652344 97.347656 213.453125 C 99.894531 165.675781 97.929688 138.769531 89.832031 110.628906 C 85.179688 94.453125 78.753906 78.632812 70.734375 63.574219 L 132.007812 44.027344 L 167.730469 78.234375 C 167.761719 78.265625 167.796875 78.285156 167.824219 78.308594 C 167.882812 78.363281 167.945312 78.40625 168.007812 78.453125 C 168.113281 78.53125 168.21875 78.601562 168.332031 78.660156 C 168.394531 78.695312 168.457031 78.730469 168.523438 78.761719 C 168.652344 78.816406 168.78125 78.859375 168.914062 78.898438 C 168.972656 78.914062 169.027344 78.933594 169.085938 78.945312 C 169.277344 78.988281 169.472656 79.015625 169.667969 79.015625 C 169.667969 79.015625 169.667969 79.011719 169.667969 79.011719 C 169.667969 79.011719 169.671875 79.015625 169.671875 79.015625 C 169.839844 79.015625 170.003906 78.996094 170.171875 78.964844 C 170.222656 78.953125 170.269531 78.941406 170.320312 78.929688 C 170.433594 78.902344 170.550781 78.867188 170.664062 78.824219 C 170.71875 78.800781 170.773438 78.777344 170.832031 78.753906 C 170.933594 78.707031 171.035156 78.648438 171.136719 78.585938 C 171.1875 78.554688 171.238281 78.527344 171.289062 78.492188 C 171.308594 78.476562 171.328125 78.46875 171.347656 78.453125 L 187.472656 66.382812 L 192.46875 70.121094 L 192.46875 147.972656 L 181.421875 147.972656 L 181.421875 84.824219 C 181.421875 83.277344 180.167969 82.023438 178.621094 82.023438 C 177.074219 82.023438 175.820312 83.277344 175.820312 84.824219 L 175.820312 150.773438 C 175.820312 152.320312 177.074219 153.574219 178.621094 153.574219 L 195.269531 153.574219 C 196.816406 153.574219 198.070312 152.320312 198.070312 150.773438 L 198.070312 74.316406 L 203.59375 78.453125 C 203.613281 78.46875 203.632812 78.476562 203.652344 78.492188 C 203.703125 78.527344 203.757812 78.554688 203.808594 78.589844 C 203.90625 78.648438 204.007812 78.707031 204.109375 78.753906 C 204.167969 78.777344 204.222656 78.800781 204.28125 78.824219 C 204.394531 78.867188 204.507812 78.902344 204.621094 78.929688 C 204.671875 78.941406 204.71875 78.953125 204.769531 78.964844 C 204.9375 78.996094 205.105469 79.015625 205.273438 79.015625 C 205.273438 79.015625 205.273438 79.011719 205.273438 79.011719 C 205.273438 79.011719 205.273438 79.015625 205.273438 79.015625 C 205.46875 79.015625 205.664062 78.988281 205.859375 78.945312 C 205.914062 78.933594 205.96875 78.914062 206.027344 78.898438 C 206.160156 78.859375 206.289062 78.816406 206.417969 78.761719 C 206.484375 78.730469 206.546875 78.695312 206.609375 78.660156 C 206.722656 78.601562 206.832031 78.53125 206.933594 78.453125 C 206.996094 78.40625 207.058594 78.363281 207.117188 78.308594 C 207.148438 78.28125 207.183594 78.265625 207.210938 78.234375 L 242.933594 44.027344 L 304.207031 63.574219 C 296.191406 78.632812 289.765625 94.453125 285.109375 110.628906 Z M 285.109375 110.628906 " fill-opacity="1" fill-rule="nonzero"/></g></svg>